/* XPM */
static char * start_xpm[] = {
"64 36 14 1",
" 	c None",
".	c #530D73",
"+	c #4A4E51",
"@	c #343434",
"#	c #0D0D0D",
"$	c #C4C4C4",
"%	c #E8E8E8",
"&	c #808182",
"*	c #CCCCCC",
"=	c #AEB3B5",
"-	c #9B9FA1",
";	c #C2EAFE",
">	c #606365",
",	c #AACEE2",
"                                                                ",
"                                                                ",
"                                                                ",
"                                                                ",
"                                                                ",
"                                                                ",
"                                                                ",
"                                                                ",
"        ................................................        ",
"        ................................................        ",
"        ................................................        ",
"        ................................................        ",
"        ...................++@.#++@.#++.+++@.#+++.......        ",
"        ..................@$%%#&%%*#=%%#%%%-#+%%%+......        ",
"        .....++...........@-%%@*%%%@=%%#%%%%#-%%%+......        ",
"        ....+;;#..........@@*%&%%%%&%%-#%%$%#$%%%+....##        ",
"        ....+;;#.#++@#@##++##-%%%=%%%%&#%%=%+%-%%>...#+%        ",
"        ....+;;##,;;;=#+;;;;+@%%->%%%%+#%%+@@##%%+...#%$        ",
"        ....+;;#&;&#&>#,;>>;,#%%&#%%%%##%%#=->@%%+..@=%=        ",
"        ....+;;#-;+.###;;----@%%##*%%=##%#---&+#@#.#-%%$        ",
"        ....+;;#>;-+,,#=;>+-&+%%#@&%%-@##>*>--&+&+##**%%        ",
"        ....+;;##&;;,>@#,;;=#@+@#.@>+##@>&=-&-&>>&+&$-*%        ",
"        .....##..#####.@####........##&*=>-&&=&&>+>$-=-%        ",
"        .........................#@@>$%---&>-$&>>@--$==%        ",
"        ............+@@#####@##@@>>&=%$&->&>$-&&>&*-&=*$        ",
"        ...........#+>&&&&&&--&-&-**$*&-=>>=&-->+%==>-%$        ",
"        .......##@+>>&&&-&-==-&-=*%=%&&&&>-=&=&&&*&&+$**        ",
"        ......#>>>>>>&&&&&-&&-*%*$$*-&&>>=*&*=--*&>++*$=        ",
"                                                                ",
"                                                                ",
"                                                                ",
"                                                                ",
"                                                                ",
"                                                                ",
"                                                                ",
"                                                                "};
